<?xml version="1.0" standalone="no"?>
<!DOCTYPE svg PUBLIC "-//W3C//DTD SVG 20010904//EN"
 "http://www.w3.org/TR/2001/REC-SVG-20010904/DTD/svg10.dtd">
<svg version="1.0" xmlns="http://www.w3.org/2000/svg"
 width="201.000000pt" height="201.000000pt" viewBox="0 0 201.000000 201.000000"
 preserveAspectRatio="xMidYMid meet">
<metadata>
Created by potrace 1.11, written by Peter Selinger 2001-2013
</metadata>
<g transform="translate(0.000000,201.000000) scale(0.100000,-0.100000)"
fill="#000000" stroke="none">
<path d="M830 1985 c-230 -45 -429 -155 -569 -314 -139 -159 -187 -256 -248
-496 -12 -46 -10 -274 2 -345 56 -317 255 -582 546 -727 50 -24 134 -56 187
-69 85 -22 117 -25 259 -23 175 1 247 13 373 65 150 60 290 165 399 298 96
118 176 293 208 456 12 62 10 296 -3 354 -52 225 -130 371 -279 521 -189 189
-412 284 -680 290 -76 1 -157 -3 -195 -10z"/>
</g>
</svg>
